<svg xmlns="http://www.w3.org/2000/svg" version="1.0" width="238.000000pt" height="238.000000pt" viewBox="0 0 238.000000 238.000000" preserveAspectRatio="xMidYMid meet">
  <metadata>
  </metadata>
  <g transform="translate(0.000000,238.000000) scale(0.100000,-0.100000)" fill="#ffffff" stroke="none">
    <path d="M1025 2359c-252-37-482-153-666-338-466-465-466-1197 0-1662 461-461 1181-466 1652-11 405 389 475 1014 166 1486-77 118-225 266-342 342-240 156-536 223-810 183zm118-121c-13-40-31-93-38-118-7-25-27-83-43-130-55-155-163-463-207-590-23-69-81-231-128-360-47-129-123-342-170-474l-84-239-77 79c-433 440-430 1137 5 1573 196 196 468 317 741 330l27 1-26-72zm271 46c398-76 734-387 850-788 111-383 4-802-279-1089-42-43-79-77-81-75-3 4-339 982-390 1133-17 52-168 498-233 688-28 81-51 150-51 153 0 6 88-4 184-22zm-120-385c52-151 140-407 196-569 56-162 112-326 125-365 13-38 38-110 56-160 71-201 179-519 176-521-1-1-29-19-61-39-142-90-308-147-486-166-242-27-511 38-716 172l-52 34 82 227c44 126 90 237 101 248 12 11 141 64 294 119 150 55 278 104 284 110 11 11-5 61-21 61-5 0-122-38-262-85-139-47-255-83-258-81-7 8 28 104 49 130 15 19 66 40 217 90 108 37 203 70 211 75 18 12-3 51-28 51-10 0-97-27-192-60-95-33-175-57-178-54-3 3 21 80 53 172 32 92 77 223 101 292 24 69 71 204 105 300 34 96 71 203 83 237 11 35 22 61 24 59 2-2 46-126 97-277z"/>
  </g>
</svg>
